<svg xmlns="http://www.w3.org/2000/svg" viewBox="0 0 105 101"><defs><style>.cls-1{fill:#fff;}</style></defs><title>Asset 5300ppi</title><g id="Layer_2" data-name="Layer 2"><g id="Layer_1-2" data-name="Layer 1"><path d="M71.5,0a33.3,33.3,0,0,0-19,5.91A33.5,33.5,0,0,0,0,33.5c0,9.29,8.7,26.28,19.71,40.89C30.1,88.17,42.54,99.83,51.65,100.91a3,3,0,0,0,.41,0h.1c.23,0,.46,0,.7,0h.72l.34,0,.46-.06c8.87-1.07,20.7-12.2,30.69-25.54C96.17,60.54,105,43,105,33.5A33.5,33.5,0,0,0,71.5,0Z"/><path class="cls-1" d="M52.86,71.84A73.18,73.18,0,0,1,40.68,58.71c-8-10.67-12.14-20-12.67-23a8.4,8.4,0,0,1,8.39-8,8.17,8.17,0,0,1,4.73,1.46L52.5,37l11.37-7.85A8.17,8.17,0,0,1,68.6,27.7,8.39,8.39,0,0,1,77,35.79c-.49,3-4.64,12.78-12.89,23.79A70.07,70.07,0,0,1,52.86,71.84Z"/><path class="cls-1" d="M68.6,7.7a28.23,28.23,0,0,0-16.1,5A28.4,28.4,0,0,0,8,36.09C8,44,15.37,58.37,24.71,70.75c8.8,11.68,19.35,21.56,27.07,22.48l.35,0h.08a5.88,5.88,0,0,0,.6,0h.61l.28,0a2.6,2.6,0,0,0,.39,0c7.52-.91,17.55-10.34,26-21.65C89.52,59,97,44.14,97,36.09A28.39,28.39,0,0,0,68.6,7.7Z"/></g></g></svg>