<svg xmlns="http://www.w3.org/2000/svg" viewBox="0 0 105 101"><defs><style>.cls-1{fill:#ff4088;}</style></defs><title>Asset 4300ppi</title><g id="Layer_2" data-name="Layer 2"><g id="Layer_1-2" data-name="Layer 1"><path class="cls-1" d="M71.5,0a33.3,33.3,0,0,0-19,5.91A33.5,33.5,0,0,0,0,33.5c0,9.29,8.7,26.28,19.71,40.89C30.1,88.17,42.54,99.83,51.65,100.91a3,3,0,0,0,.41,0h.1c.23,0,.46,0,.7,0h.72l.34,0,.46-.06c8.87-1.07,20.7-12.2,30.69-25.54C96.17,60.54,105,43,105,33.5A33.5,33.5,0,0,0,71.5,0Z"/></g></g></svg>