<svg xmlns="http://www.w3.org/2000/svg" viewBox="0 0 426 426"><defs><style>.cls-1{fill:#fff;}</style></defs><title>like-2300ppi</title><g id="Layer_2" data-name="Layer 2"><g id="Layer_1-2" data-name="Layer 1"><path d="M213,40A173,173,0,0,1,335.33,335.33,173,173,0,1,1,91.08,90.25,172,172,0,0,1,213,40m0-40A212.86,212.86,0,0,0,0,213C0,330.64,95.37,426,213,426s213-95.36,213-213S330.64,0,213,0Z"/><path class="cls-1" d="M147.92,180.17a28.35,28.35,0,0,0-1-3,29.05,29.05,0,0,0,2.55-1.85,30.63,30.63,0,0,0,2.55,1.85,28.35,28.35,0,0,0-1,3c-.53,0-1.05,0-1.58,0S148.45,180.14,147.92,180.17Z"/><path d="M149.5,129.56a3.78,3.78,0,0,0-3.43,2.13l-11.33,23a3.83,3.83,0,0,1-2.88,2.09l-25.34,3.69A3.82,3.82,0,0,0,104.4,167l18.33,17.88a3.79,3.79,0,0,1,1.1,3.38l-4.32,25.24a3.81,3.81,0,0,0,5.55,4l22.66-11.91a3.82,3.82,0,0,1,3.56,0L174,217.48a3.76,3.76,0,0,0,1.78.45,3.84,3.84,0,0,0,3.77-4.48l-4.33-25.24a3.82,3.82,0,0,1,1.1-3.38L194.61,167a3.82,3.82,0,0,0-2.13-6.52l-25.33-3.69a3.8,3.8,0,0,1-2.88-2.09l-11.34-23a3.77,3.77,0,0,0-3.43-2.13Z"/><path class="cls-1" d="M274.92,180.17a28.35,28.35,0,0,0-1-3,30.63,30.63,0,0,0,2.55-1.85,30.63,30.63,0,0,0,2.55,1.85,28.35,28.35,0,0,0-1,3c-.53,0-1.05,0-1.58,0S275.45,180.14,274.92,180.17Z"/><path d="M276.5,129.56a3.78,3.78,0,0,0-3.43,2.13l-11.33,23a3.83,3.83,0,0,1-2.88,2.09l-25.34,3.69A3.82,3.82,0,0,0,231.4,167l18.33,17.88a3.79,3.79,0,0,1,1.1,3.38l-4.32,25.24a3.81,3.81,0,0,0,5.55,4l22.66-11.91a3.82,3.82,0,0,1,3.56,0L301,217.48a3.76,3.76,0,0,0,1.78.45,3.84,3.84,0,0,0,3.77-4.48l-4.33-25.24a3.82,3.82,0,0,1,1.1-3.38L321.61,167a3.82,3.82,0,0,0-2.13-6.52l-25.33-3.69a3.8,3.8,0,0,1-2.88-2.09l-11.34-23a3.77,3.77,0,0,0-3.43-2.13Z"/><path d="M307.5,289.5c0,17.4-45.31,63.5-97.5,63.5s-91.5-46.1-91.5-63.5,39.31.5,91.5.5S307.5,272.1,307.5,289.5Z"/><path d="M213,231.53c6.63,0,12,17.37,12,24s-5.37,0-12,0-12,6.62-12,0S206.37,231.53,213,231.53Z"/><path d="M58.5,106.4c0-17.4,45.31-63.5,97.5-63.5s91.5,46.1,91.5,63.5-39.31-.5-91.5-.5S58.5,123.79,58.5,106.4Z"/><path d="M101.5,93.4c0-17.4,45.31-63.5,97.5-63.5S290.5,76,290.5,93.4s-39.31-.5-91.5-.5S101.5,110.79,101.5,93.4Z"/><path d="M149.5,88.4c0-17.4,45.31-63.5,97.5-63.5S338.5,71,338.5,88.4s-39.31-.5-91.5-.5S149.5,105.79,149.5,88.4Z"/><path d="M197.5,115.4c0,17.39-39.31-.5-91.5-.5-36.38,0-69.42,8.69-86.09,8.07a213.61,213.61,0,0,1,43-61.1c13.13-6,27.82-10,43.1-10q4.16,0,8.19.39a92.08,92.08,0,0,1,16.29,3,106.42,106.42,0,0,1,29,13.15A112.45,112.45,0,0,1,187,93.2l.23.3a58.87,58.87,0,0,1,9,15.43A19.64,19.64,0,0,1,197.5,115.4Z"/></g></g></svg>