<svg xmlns="http://www.w3.org/2000/svg" viewBox="0 0 426 426"><defs><style>.cls-1{fill:#fff;}</style></defs><title>Asset 1300ppi</title><g id="Layer_2" data-name="Layer 2"><g id="Layer_1-2" data-name="Layer 1"><circle class="cls-1" cx="213" cy="213" r="193"/><path d="M213,40A173,173,0,0,1,335.33,335.33,173,173,0,0,1,90.67,90.67,171.9,171.9,0,0,1,213,40m0-40C95.36,0,0,95.36,0,213S95.36,426,213,426s213-95.36,213-213S330.64,0,213,0Z"/><path class="cls-1" d="M147.92,165.17a28.35,28.35,0,0,0-1-3,30.63,30.63,0,0,0,2.55-1.85,30.63,30.63,0,0,0,2.55,1.85,28.35,28.35,0,0,0-1,3c-.53,0-1.05,0-1.58,0S148.45,165.14,147.92,165.17Z"/><path d="M149.5,114.56a3.78,3.78,0,0,0-3.43,2.13l-11.33,23a3.83,3.83,0,0,1-2.88,2.09l-25.34,3.69A3.82,3.82,0,0,0,104.4,152l18.33,17.88a3.82,3.82,0,0,1,1.1,3.38l-4.33,25.24a3.82,3.82,0,0,0,5.56,4l22.66-11.91a3.82,3.82,0,0,1,3.56,0l22.66,11.91a3.82,3.82,0,0,0,5.56-4l-4.33-25.24a3.82,3.82,0,0,1,1.1-3.38L194.6,152a3.82,3.82,0,0,0-2.12-6.52l-25.34-3.69a3.83,3.83,0,0,1-2.88-2.09l-11.33-23a3.78,3.78,0,0,0-3.43-2.13Z"/><path class="cls-1" d="M274.92,165.17a28.35,28.35,0,0,0-1-3,30.63,30.63,0,0,0,2.55-1.85,30.63,30.63,0,0,0,2.55,1.85,28.35,28.35,0,0,0-1,3c-.53,0-1.05,0-1.58,0S275.45,165.14,274.92,165.17Z"/><path d="M276.5,114.56a3.77,3.77,0,0,0-3.43,2.13l-11.33,23a3.83,3.83,0,0,1-2.88,2.09l-25.34,3.69A3.82,3.82,0,0,0,231.4,152l18.33,17.88a3.82,3.82,0,0,1,1.1,3.38l-4.33,25.24a3.82,3.82,0,0,0,5.56,4l22.66-11.91a3.82,3.82,0,0,1,3.56,0l22.66,11.91a3.82,3.82,0,0,0,5.56-4l-4.33-25.24a3.82,3.82,0,0,1,1.1-3.38L321.6,152a3.82,3.82,0,0,0-2.12-6.52l-25.34-3.69a3.83,3.83,0,0,1-2.88-2.09l-11.33-23a3.78,3.78,0,0,0-3.43-2.13Z"/><path d="M307.5,274.5c0,17.4-45.31,63.5-97.5,63.5s-91.5-46.1-91.5-63.5,39.31.5,91.5.5S307.5,257.1,307.5,274.5Z"/><path d="M213,216.53c6.63,0,12,17.37,12,24s-5.37,0-12,0-12,6.62-12,0S206.37,216.53,213,216.53Z"/></g></g></svg>